  <svg version="1.1" id="Layer_1" xmlns="http://www.w3.org/2000/svg" xmlns:xlink="http://www.w3.org/1999/xlink" x="0px"
  	y="0px" width="46px" height="46px" viewBox="0 0 119 119" enable-background="new 0 0 167 46" xml:space="preserve">
  	<g>
  		<path d="M60.584,119.49c-31.354,0-56.863-25.509-56.863-56.862c0-31.355,25.509-56.864,56.863-56.864s56.863,25.509,56.863,56.864
		C117.447,93.981,91.938,119.49,60.584,119.49z M60.584,10.763c-28.598,0-51.863,23.266-51.863,51.864
		c0,28.597,23.266,51.862,51.863,51.862s51.863-23.265,51.863-51.862C112.447,34.029,89.182,10.763,60.584,10.763z" />
  		<g>
  			<path d="M64.11,68.127c0,1.35,1,1.7,1.8,1.7c0.95,0,1.85-1.2,1.85-3.05v-2.8h4.85l3.75,5.05v11.15H53.009l-3.2-4.2v-4.6l1.95-0.3
			c0.95-0.2,1.3-1.6,1.3-3.35V50.676c0-2.3-0.7-3-1.65-3.1l-1.6-0.3v-4.6H63.66l3.7,4.9v3.95l-1.55,0.25c-0.9,0.1-1.7,1.15-1.7,3.85
			V68.127z M53.91,67.977c0,2.3-0.4,3.75-1.6,4l-1.6,0.25v2.85h21.101v-10.25h-3.15v2.75c0,2.4-1.25,3.55-4.75,3.55
			c-3.65,0-4.351-1.6-4.351-4.45V50.676c0-2.35,0.6-3.8,1.6-4l1.6-0.25v-2.85h-12.05v2.85l1.6,0.25c1,0.2,1.6,1.65,1.6,4V67.977z
			 M54.81,50.676c0-3.8-1.05-4.75-1.95-4.95l-1.3-0.2v-1.1H61.91v1.1l-1.3,0.2c-0.9,0.2-1.95,1.15-1.95,4.95v8.101
			c-0.5-0.4-1.2-0.4-1.85,0c0.3,0.65,0.85,1.7,1.6,2.45c-0.75,1.65-1.3,3.951-1.65,8.201c-0.35-4.25-0.9-6.55-1.65-8.201
			c0.75-0.75,1.3-1.8,1.55-2.45c-0.7-0.4-1.35-0.4-1.85,0V50.676z M56.81,58.726c0.3-1.75,0.85-2.75,1.6-3.5
			c-0.75-1.2-1.3-3-1.65-6.75c-0.35,3.75-0.9,5.55-1.65,6.75c0.75,0.75,1.3,1.75,1.55,3.5H56.81z" />
  		</g>
  	</g>
  </svg>